<?xml version="1.0" standalone="no"?>
<svg xmlns="http://www.w3.org/2000/svg" viewBox="0 0 180.8 29" width="180.8" height="29"><path fill="#1332d2" fill-rule="nonzero" d="M7.49 17.76Q6.50 17.76 6 16.66L6 16.66L0.07 2.28Q0 2.09 0 1.87L0 1.87Q0 1.37 0.29 1.07Q0.58 0.77 1.08 0.77L1.08 0.77Q1.42 0.77 1.69 0.97Q1.97 1.18 2.11 1.51L2.11 1.51L7.75 15.58L13.39 1.51Q13.54 1.18 13.81 0.97Q14.09 0.77 14.42 0.77L14.42 0.77Q14.93 0.77 15.22 1.07Q15.50 1.37 15.50 1.87L15.50 1.87Q15.50 2.09 15.43 2.28L15.43 2.28L9.50 16.66Q9 17.76 8.02 17.76L8.02 17.76L7.49 17.76ZM18.77 2.90Q18.26 2.90 17.90 2.54Q17.54 2.18 17.54 1.68L17.54 1.68L17.54 1.58Q17.54 1.08 17.90 0.72Q18.26 0.36 18.77 0.36L18.77 0.36L18.91 0.36Q19.42 0.36 19.78 0.72Q20.14 1.08 20.14 1.58L20.14 1.58L20.14 1.68Q20.14 2.18 19.78 2.54Q19.42 2.90 18.91 2.90L18.91 2.90L18.77 2.90ZM18.82 17.76Q18.36 17.76 18.05 17.45Q17.74 17.14 17.74 16.68L17.74 16.68L17.74 6.38Q17.74 5.93 18.05 5.60Q18.36 5.28 18.82 5.28L18.82 5.28Q19.30 5.28 19.61 5.59Q19.92 5.90 19.92 6.38L19.92 6.38L19.92 16.68Q19.92 17.14 19.60 17.45Q19.27 17.76 18.82 17.76L18.82 17.76ZM28.78 17.88Q27.29 17.88 25.96 17.12Q24.62 16.37 23.80 14.92Q22.97 13.46 22.97 11.52L22.97 11.52Q22.97 9.58 23.80 8.12Q24.62 6.67 25.96 5.92Q27.29 5.16 28.78 5.16L28.78 5.16Q31.13 5.16 32.88 6.98L32.88 6.98L32.88 1.10Q32.88 0.62 33.20 0.31Q33.53 0 33.98 0L33.98 0Q34.44 0 34.75 0.32Q35.06 0.65 35.06 1.10L35.06 1.10L35.06 16.68Q35.06 17.14 34.75 17.45Q34.44 17.76 33.98 17.76L33.98 17.76Q33.53 17.76 33.20 17.45Q32.88 17.14 32.88 16.68L32.88 16.68L32.88 16.06Q31.13 17.88 28.78 17.88L28.78 17.88ZM29.09 15.84Q30.19 15.84 31.16 15.35Q32.14 14.86 32.88 14.04L32.88 14.04L32.88 9Q32.14 8.18 31.16 7.69Q30.19 7.20 29.09 7.20L29.09 7.20Q27.31 7.20 26.23 8.33Q25.15 9.46 25.15 11.52L25.15 11.52Q25.15 13.58 26.23 14.71Q27.31 15.84 29.09 15.84L29.09 15.84ZM44.33 17.88Q41.40 17.88 39.76 16.21Q38.11 14.54 38.11 11.52L38.11 11.52Q38.11 9.82 38.74 8.38Q39.36 6.94 40.66 6.05Q41.95 5.16 43.85 5.16L43.85 5.16Q45.62 5.16 46.92 5.99Q48.22 6.82 48.89 8.20Q49.56 9.58 49.56 11.21L49.56 11.21Q49.56 11.66 49.26 11.98Q48.96 12.29 48.46 12.29L48.46 12.29L40.32 12.29Q40.51 13.97 41.57 14.90Q42.62 15.84 44.52 15.84L44.52 15.84Q45.53 15.84 46.28 15.65Q47.04 15.46 47.76 15.10L47.76 15.10Q47.95 15 48.19 15L48.19 15Q48.58 15 48.86 15.26Q49.15 15.53 49.15 15.94L49.15 15.94Q49.15 16.46 48.53 16.82L48.53 16.82Q47.59 17.35 46.68 17.62Q45.77 17.88 44.33 17.88L44.33 17.88ZM40.32 10.51L47.40 10.51Q47.33 9.34 46.79 8.54Q46.25 7.75 45.46 7.38Q44.66 7.01 43.85 7.01L43.85 7.01Q43.03 7.01 42.24 7.38Q41.45 7.75 40.92 8.54Q40.39 9.34 40.32 10.51L40.32 10.51ZM57.84 17.88Q55.99 17.88 54.60 17.09Q53.21 16.30 52.45 14.84Q51.70 13.39 51.70 11.52L51.70 11.52Q51.70 9.65 52.45 8.20Q53.21 6.74 54.60 5.95Q55.99 5.16 57.84 5.16L57.84 5.16Q59.66 5.16 61.06 5.95Q62.45 6.74 63.22 8.20Q63.98 9.65 63.98 11.52L63.98 11.52Q63.98 13.39 63.22 14.84Q62.45 16.30 61.06 17.09Q59.66 17.88 57.84 17.88L57.84 17.88ZM57.84 15.89Q58.82 15.89 59.72 15.43Q60.62 14.98 61.21 13.99Q61.80 13.01 61.80 11.50L61.80 11.50Q61.80 10.01 61.21 9.02Q60.62 8.04 59.72 7.60Q58.82 7.15 57.84 7.15L57.84 7.15Q56.83 7.15 55.93 7.60Q55.03 8.04 54.46 9.02Q53.88 10.01 53.88 11.50L53.88 11.50Q53.88 13.01 54.46 13.99Q55.03 14.98 55.93 15.43Q56.83 15.89 57.84 15.89L57.84 15.89ZM68.21 17.76Q67.75 17.76 67.44 17.45Q67.13 17.14 67.13 16.68L67.13 16.68L67.13 2.35Q67.13 1.70 67.58 1.24Q68.04 0.77 68.69 0.77L68.69 0.77L69.48 0.77Q69.96 0.77 70.36 1.06Q70.75 1.34 70.94 1.78L70.94 1.78L76.39 15.36L81.84 1.78Q82.03 1.34 82.43 1.06Q82.82 0.77 83.30 0.77L83.30 0.77L84.10 0.77Q84.74 0.77 85.20 1.24Q85.66 1.70 85.66 2.35L85.66 2.35L85.66 16.68Q85.66 17.14 85.34 17.45Q85.03 17.76 84.58 17.76L84.58 17.76Q84.12 17.76 83.80 17.45Q83.47 17.14 83.47 16.68L83.47 16.68L83.47 3.05L77.93 16.75Q77.74 17.21 77.32 17.48Q76.90 17.76 76.39 17.76L76.39 17.76Q75.89 17.76 75.47 17.48Q75.05 17.21 74.86 16.75L74.86 16.75L69.31 3.05L69.31 16.68Q69.31 17.14 68.99 17.45Q68.66 17.76 68.21 17.76L68.21 17.76ZM93 17.88Q91.94 17.88 91.04 17.45Q90.14 17.02 89.62 16.19Q89.09 15.36 89.09 14.28L89.09 14.28Q89.09 12.50 90.49 11.45Q91.90 10.39 94.61 10.39L94.61 10.39L97.51 10.39L97.51 10.20Q97.51 8.62 96.73 7.92Q95.95 7.22 94.30 7.22L94.30 7.22Q93.38 7.22 92.68 7.37Q91.97 7.51 91.10 7.80L91.10 7.80Q90.91 7.85 90.79 7.85L90.79 7.85Q90.43 7.85 90.17 7.58Q89.90 7.32 89.90 6.94L89.90 6.94Q89.90 6.29 90.53 6.02L90.53 6.02Q92.57 5.16 94.68 5.16L94.68 5.16Q96.34 5.16 97.48 5.83Q98.62 6.50 99.16 7.57Q99.70 8.64 99.70 9.89L99.70 9.89L99.70 16.68Q99.70 17.14 99.37 17.45Q99.05 17.76 98.59 17.76L98.59 17.76Q98.14 17.76 97.82 17.45Q97.51 17.14 97.51 16.68L97.51 16.68L97.51 16.06Q95.74 17.88 93 17.88L93 17.88ZM93.82 15.96Q94.87 15.96 95.86 15.44Q96.84 14.93 97.51 14.16L97.51 14.16L97.51 12.14L94.90 12.14Q91.27 12.14 91.27 14.04L91.27 14.04Q91.27 14.90 91.86 15.43Q92.45 15.96 93.82 15.96L93.82 15.96ZM104.45 17.76Q103.99 17.76 103.68 17.45Q103.37 17.14 103.37 16.68L103.37 16.68L103.37 6.38Q103.37 5.93 103.68 5.60Q103.99 5.28 104.45 5.28L104.45 5.28Q104.90 5.28 105.23 5.60Q105.55 5.93 105.55 6.38L105.55 6.38L105.55 7.37Q106.46 6.36 107.52 5.76Q108.58 5.16 110.02 5.16L110.02 5.16Q111.34 5.16 112.31 5.78Q113.28 6.41 113.80 7.49Q114.31 8.57 114.31 9.86L114.31 9.86L114.31 16.68Q114.31 17.14 113.99 17.45Q113.66 17.76 113.21 17.76L113.21 17.76Q112.75 17.76 112.44 17.45Q112.13 17.14 112.13 16.68L112.13 16.68L112.13 10.10Q112.13 7.18 109.49 7.18L109.49 7.18Q108.29 7.18 107.34 7.80Q106.39 8.42 105.55 9.48L105.55 9.48L105.55 16.68Q105.55 17.14 105.23 17.45Q104.90 17.76 104.45 17.76L104.45 17.76ZM119.02 2.90Q118.51 2.90 118.15 2.54Q117.79 2.18 117.79 1.68L117.79 1.68L117.79 1.58Q117.79 1.08 118.15 0.72Q118.51 0.36 119.02 0.36L119.02 0.36L119.16 0.36Q119.66 0.36 120.02 0.72Q120.38 1.08 120.38 1.58L120.38 1.58L120.38 1.68Q120.38 2.18 120.02 2.54Q119.66 2.90 119.16 2.90L119.16 2.90L119.02 2.90ZM119.06 17.76Q118.61 17.76 118.30 17.45Q117.98 17.14 117.98 16.68L117.98 16.68L117.98 6.38Q117.98 5.93 118.30 5.60Q118.61 5.28 119.06 5.28L119.06 5.28Q119.54 5.28 119.86 5.59Q120.17 5.90 120.17 6.38L120.17 6.38L120.17 16.68Q120.17 17.14 119.84 17.45Q119.52 17.76 119.06 17.76L119.06 17.76ZM127.08 17.88Q126.02 17.88 125.12 17.45Q124.22 17.02 123.70 16.19Q123.17 15.36 123.17 14.28L123.17 14.28Q123.17 12.50 124.57 11.45Q125.98 10.39 128.69 10.39L128.69 10.39L131.59 10.39L131.59 10.20Q131.59 8.62 130.81 7.92Q130.03 7.22 128.38 7.22L128.38 7.22Q127.46 7.22 126.76 7.37Q126.05 7.51 125.18 7.80L125.18 7.80Q124.99 7.85 124.87 7.85L124.87 7.85Q124.51 7.85 124.25 7.58Q123.98 7.32 123.98 6.94L123.98 6.94Q123.98 6.29 124.61 6.02L124.61 6.02Q126.65 5.16 128.76 5.16L128.76 5.16Q130.42 5.16 131.56 5.83Q132.70 6.50 133.24 7.57Q133.78 8.64 133.78 9.89L133.78 9.89L133.78 16.68Q133.78 17.14 133.45 17.45Q133.13 17.76 132.67 17.76L132.67 17.76Q132.22 17.76 131.90 17.45Q131.59 17.14 131.59 16.68L131.59 16.68L131.59 16.06Q129.82 17.88 127.08 17.88L127.08 17.88ZM127.90 15.96Q128.95 15.96 129.94 15.44Q130.92 14.93 131.59 14.16L131.59 14.16L131.59 12.14L128.98 12.14Q125.35 12.14 125.35 14.04L125.35 14.04Q125.35 14.90 125.94 15.43Q126.53 15.96 127.90 15.96L127.90 15.96Z" transform="translate(0, 5.56)"></path><line x1="142.77599999999998" y1="2%" x2="142.77599999999998" y2="98%" stroke="#1332d2" stroke-linecap="round"></line><g fill="#eb1628" color="#eb1628" transform="translate(151.77599999999998 0) scale(0.29)"><svg width="100.0" height="100.0" x="0.0" y="0.0" viewBox="0 0 100 100"><g><path d="M82.112,20.508H17.888c-4.418,0-8,3.582-8,8v42.984c0,4.418,3.582,8,8,8h64.225c4.418,0,8-3.582,8-8V28.508   C90.112,24.089,86.53,20.508,82.112,20.508z M82.112,71.492H17.888V28.508h64.225V71.492z"></path><path d="M37.627,66.596c0.619,0.357,1.309,0.536,2,0.536c0.69,0,1.381-0.179,2-0.536l22.746-13.132c1.238-0.714,2-2.035,2-3.464   c0-1.429-0.762-2.75-2-3.464L41.627,33.404c-1.237-0.715-2.763-0.715-4,0c-1.238,0.714-2,2.035-2,3.464v26.264   C35.627,64.561,36.389,65.882,37.627,66.596z M43.627,43.796L54.373,50l-10.746,6.204V43.796z"></path></g></svg></g></svg>